<svg height="512" viewBox="0 0 33 58" width="512" xmlns="http://www.w3.org/2000/svg"><g id="014---Penguin" fill="none"><path id="Shape" d="m27.81 53.46 5.19 4.54h-15z" fill="#f0c419"/><path id="Shape" d="m20.27 10.18 12.41 11.52c.2057808.1908345.3218991.459358.32.74v27c.0016321.3380647-.1676544.6540662-.45.84l-11.55 7.72h-14v-43z" fill="#ecf0f1"/><path id="Shape" d="m16 29-8-14-8 7 7 36 7-7z" fill="#35495e"/><path id="Shape" d="m19 2 13 1-8 5z" fill="#f0c419"/><path id="Shape" d="m16 39v-10l-5 6z" fill="#2c3e50"/><g fill="#3f5c6c"><path id="Shape" d="m14 51-3-16 9.08 5.45c.2368325.1435324.4035398.3788495.4603996.6498812s-.0012197.5535069-.1603996.7801188z"/><path id="Shape" d="m0 22 24-14-4.71-7.53c-.1812242-.28998238-.4980578-.46725831-.84-.47h-8.78c-.40370189.00201515-.7665964.24657449-.92.62z"/></g></g></svg>